{"title":"Furious.7.2015.EXTENDED.BDRip.X264.AC3-playSD","uid":12200847,"size":1827258304,"categoryP":"video","categoryS":"movies","magnet":"?xt=urn:btih:845d67edd0c1b3896e730cd1071c4d8c333c82f8&amp;dn=Furious.7.2015.EXTENDED.BDRip.X264.AC3-playSD&amp;tr=udp%3A%2F%2Ftracker.openbittorrent.com%3A80&amp;tr=udp%3A%2F%2Fopen.demonii.com%3A1337&amp;tr=udp%3A%2F%2Ftracker.coppersurfer.tk%3A6969&amp;tr=udp%3A%2F%2Fexodus.desync.com%3A6969","seeders":0,"leechers":0,"uploader":"TvTeam","files":6,"time":1438825785,"description":"------------------------------------------------------------------------\n\n &lt;a href=&quot; https://www.torrenting.com&quot; rel=&quot;nofollow&quot; target=&quot;_NEW&quot;&gt; https://www.torrenting.com&lt;/a&gt;\n\nSign up is OPEN - for time being. Come and have fun.\n\n------------------------------------------------------------------------General\nUnique ID                   : 172334152650266581247972717694884960054 (0x81A659BA901E7D0688CEE5701AF6D736)\nComplete name               : K:Furious.7.2015.EXTENDED.BDRip.X264.AC3-playSDFurious.7.2015.EXTENDED.BDRip.X264.AC3-playSD.mkv\nFormat                      : Matroska\nFormat version              : Version 4 / Version 2\nFile size                   : 1.68 GiB\nDuration                    : 2h 19mn\nOverall bit rate            : 1 716 Kbps\nEncoded date                : UTC 2015-08-01 11:47:16\nWriting application         : mkvmerge v8.0.0 ('Til The Day That I Die') 64bit\nWriting library             : libebml v1.3.1 + libmatroska v1.4.2\nDURATION                    : 02:10:20.406000000\nNUMBER_OF_FRAMES            : 1183\nNUMBER_OF_BYTES             : 42469\n_STATISTICS_WRITING_APP     : mkvmerge v8.0.0 ('Til The Day That I Die') 64bit\n_STATISTICS_WRITING_DATE_UT : 2015-08-01 11:47:16\n_STATISTICS_TAGS            : BPS DURATION NUMBER_OF_FRAMES NUMBER_OF_BYTES\n\nVideo\nID                          : 1\nFormat                      : AVC\nFormat/Info                 : Advanced Video Codec\nFormat profile              : High 10@L3\nFormat settings, CABAC      : No\nFormat settings, ReFrames   : 5 frames\nCodec ID                    : V_MPEG4/ISO/AVC\nDuration                    : 2h 19mn\nBit rate                    : 1 337 Kbps\nWidth                       : 720 pixels\nHeight                      : 304 pixels\nDisplay aspect ratio        : 2.35:1\nFrame rate mode             : Constant\nFrame rate                  : 23.976 fps\nColor space                 : YUV\nChroma subsampling          : 4:2:0\nBit depth                   : 10 bits\nScan type                   : Progressive\nBits/(Pixel*Frame)          : 0.255\nStream size                 : 1.27 GiB (76%)\nWriting library             : x264 core 142 r2479 dd79a61\nEncoding settings           : cabac=0 / ref=5 / deblock=1:-3:-3 / analyse=0x3:0x113 / me=hex / subme=9 / psy=1 / psy_rd=1.00:0.00 / mixed_ref=1 / me_range=16 / chroma_me=1 / trellis=2 / 8x8dct=1 / cqm=0 / deadzone=21,11 / fast_pskip=1 / chroma_qp_offset=-4 / threads=6 / lookahead_threads=1 / sliced_threads=0 / slices=5 / nr=0 / decimate=1 / interlaced=0 / bluray_compat=0 / constrained_intra=0 / bframes=5 / b_pyramid=2 / b_adapt=2 / b_bias=0 / direct=0 / weightb=0 / open_gop=0 / weightp=0 / keyint=240 / keyint_min=23 / scenecut=40 / intra_refresh=0 / rc_lookahead=50 / rc=abr / mbtree=1 / bitrate=1337 / ratetol=1.0 / qcomp=0.60 / qpmin=10 / qpmax=51 / qpstep=4 / ip_ratio=1.40 / aq=1:1.00\nDefault                     : Yes\nForced                      : No\nColor range                 : Limited\nMatrix coefficients         : BT.709\n\nAudio\nID                          : 2\nFormat                      : AC-3\nFormat/Info                 : Audio Coding 3\nMode extension              : CM (complete main)\nFormat settings, Endianness : Big\nCodec ID                    : A_AC3\nDuration                    : 2h 19mn\nBit rate mode               : Constant\nBit rate                    : 384 Kbps\nChannel(s)                  : 6 channels\nChannel positions           : Front: L C R, Side: L R, LFE\nSampling rate               : 48.0 KHz\nCompression mode            : Lossy\nDelay relative to video     : 24ms\nStream size                 : 384 MiB (22%)\nDefault                     : Yes\nForced                      : No\n\nText #1\nID                          : 3\nFormat                      : UTF-8\nCodec ID                    : S_TEXT/UTF8\nCodec ID/Info               : UTF-8 Plain Text\nLanguage                    : Romanian\nDefault                     : Yes\nForced                      : Yes\n\nText #2\nID                          : 4\nFormat                      : PGS\nMuxing mode                 : zlib\nCodec ID                    : S_HDMV/PGS\nCodec ID/Info               : Picture based subtitle format used on BDs/HD-DVDs\nLanguage                    : English\nDefault                     : No\nForced                      : No\n\nMenu\n00:00:00.054                : en:00:00:00.054","torrent":{"xt":"urn:btih:845d67edd0c1b3896e730cd1071c4d8c333c82f8","amp;dn":"Furious.7.2015.EXTENDED.BDRip.X264.AC3-playSD","amp;tr":["udp%3A%2F%2Ftracker.openbittorrent.com%3A80","udp%3A%2F%2Fopen.demonii.com%3A1337","udp%3A%2F%2Ftracker.coppersurfer.tk%3A6969","udp%3A%2F%2Fexodus.desync.com%3A6969"],"infoHash":"845d67edd0c1b3896e730cd1071c4d8c333c82f8","infoHashBuffer":{"type":"Buffer","data":[132,93,103,237,208,193,179,137,110,115,12,209,7,28,77,140,51,60,130,248]},"announce":[],"urlList":[]}}